<?xml version="1.0" standalone="no"?>
<!DOCTYPE svg PUBLIC "-//W3C//DTD SVG 20010904//EN"
 "http://www.w3.org/TR/2001/REC-SVG-20010904/DTD/svg10.dtd">
<svg version="1.0" xmlns="http://www.w3.org/2000/svg"
 width="360.000000pt" height="360.000000pt" viewBox="0 0 360.000000 360.000000"
 preserveAspectRatio="xMidYMid meet">

<g transform="translate(0.000000,360.000000) scale(0.100000,-0.100000)"
fill="#000000" stroke="none">
<path d="M2250 2940 c0 -39 -1 -40 -35 -40 -33 0 -35 -2 -35 -35 0 -34 -1 -35
-40 -35 l-40 0 0 -566 0 -566 38 4 c36 3 37 2 40 -34 l3 -38 150 0 149 0 0
-40 c0 -39 1 -40 35 -40 33 0 35 -2 35 -35 0 -33 2 -35 34 -35 33 0 35 2 38
38 3 35 5 37 38 37 33 0 35 2 38 38 l3 37 75 0 74 0 0 35 c0 36 7 40 53 36 16
-2 17 31 17 563 l0 566 -35 0 c-33 0 -35 2 -35 35 0 34 -1 35 -40 35 l-40 0 0
40 0 40 -260 0 -260 0 0 -40z m520 -75 c0 -34 1 -35 40 -35 l40 0 0 -560 0
-560 -75 0 -75 0 0 -40 0 -40 -40 0 c-39 0 -40 -1 -40 -35 0 -33 -2 -35 -35
-35 -33 0 -35 2 -35 35 0 33 -2 35 -34 35 -33 0 -35 2 -38 38 l-3 37 -125 2
c-69 1 -135 2 -147 3 l-23 0 0 560 0 560 35 0 c33 0 35 2 35 35 l0 35 260 0
260 0 0 -35z"/>
<path d="M680 2865 c0 -34 -1 -35 -40 -35 l-40 0 0 -40 c0 -39 -1 -40 -35 -40
l-35 0 0 -410 0 -410 35 0 c34 0 35 -1 35 -40 l0 -40 40 0 c39 0 40 -1 40 -35
l0 -35 260 0 260 0 0 -40 0 -40 40 0 c39 0 40 -1 40 -35 0 -33 2 -35 35 -35
33 0 35 2 35 34 0 33 2 35 38 38 36 3 37 4 34 41 l-4 37 76 0 76 0 0 35 c0 34
1 35 40 35 l40 0 0 40 c0 39 1 40 35 40 l35 0 0 410 0 410 -35 0 c-34 0 -35 1
-35 40 l0 40 -40 0 c-39 0 -40 1 -40 35 l0 35 -445 0 -445 0 0 -35z m888 -77
c3 -35 5 -37 40 -40 l37 -3 0 -405 0 -405 -37 -3 c-36 -3 -38 -5 -38 -38 l0
-34 -75 0 -75 0 0 -40 c0 -39 -1 -40 -35 -40 -33 0 -35 -2 -35 -35 0 -33 -2
-35 -35 -35 -33 0 -35 2 -35 35 0 34 -1 35 -40 35 l-40 0 0 40 0 40 -260 0
-260 0 0 34 c0 33 -2 35 -37 38 l-38 3 -3 408 -2 407 40 0 c39 0 40 1 40 33 0
19 3 37 7 40 3 4 203 6 442 5 l436 -3 3 -37z"/>
<path d="M2250 1290 c0 -39 -1 -40 -35 -40 -33 0 -35 -2 -35 -35 0 -34 -1 -35
-40 -35 l-40 0 0 -225 0 -225 40 0 40 0 0 -41 c0 -41 0 -41 35 -37 35 4 35 4
35 -34 l0 -38 115 0 115 0 0 -40 c0 -39 1 -40 35 -40 33 0 35 -2 35 -35 0 -33
2 -35 35 -35 33 0 35 2 35 35 0 36 9 41 63 36 14 -2 17 6 17 38 l0 41 75 0 75
0 0 38 c0 38 0 38 35 34 35 -4 35 -4 35 37 l0 41 40 0 40 0 0 225 0 225 -40 0
c-39 0 -40 1 -40 35 0 33 -2 35 -35 35 -34 0 -35 1 -35 40 l0 40 -300 0 -300
0 0 -40z m600 -75 c0 -33 2 -35 35 -35 l35 0 0 -225 0 -225 -34 0 c-33 0 -35
-2 -38 -37 l-3 -38 -72 -3 -73 -3 0 -34 c0 -34 -1 -35 -39 -35 -39 0 -40 -1
-43 -37 -3 -35 -6 -38 -33 -38 -27 0 -30 3 -33 38 -3 35 -5 37 -38 37 -32 0
-34 2 -34 35 0 21 -5 35 -12 35 -7 1 -58 2 -113 3 l-100 2 -3 38 c-3 35 -5 37
-38 37 l-34 0 0 225 0 225 35 0 c33 0 35 2 35 35 l0 35 300 0 300 0 0 -35z"/>
<path d="M750 1215 c0 -33 -2 -35 -34 -35 -33 0 -35 -2 -38 -37 -3 -36 -5 -38
-40 -41 l-38 -3 0 -150 0 -149 40 2 40 1 0 149 0 148 34 0 c33 0 35 2 38 38
l3 37 483 3 482 2 0 -40 0 -40 40 0 40 0 0 -150 0 -150 35 0 35 0 0 150 0 150
-35 0 c-34 0 -35 1 -35 40 l0 40 -40 0 c-39 0 -40 1 -40 35 l0 35 -485 0 -485
0 0 -35z"/>
<path d="M687 803 c-4 -3 -7 -21 -7 -40 0 -31 2 -33 35 -33 34 0 35 -1 35 -40
l0 -39 298 2 297 2 3 38 3 37 -300 0 -301 0 0 40 c0 37 -2 40 -28 40 -16 0
-32 -3 -35 -7z"/>
<path d="M1727 804 c-4 -4 -7 -22 -7 -41 l0 -33 -75 0 -75 0 0 -35 c0 -33 -2
-35 -34 -35 -33 0 -35 -2 -38 -37 -3 -35 -6 -38 -35 -41 -30 -3 -32 -1 -35 35
-3 36 -5 38 -40 41 l-38 3 0 -40 0 -41 40 0 40 0 0 -40 c0 -39 1 -40 35 -40
34 0 35 1 35 40 0 39 1 40 35 40 33 0 35 2 35 35 l0 35 75 0 75 0 0 40 0 40
41 0 40 0 -3 38 c-3 33 -6 37 -33 40 -17 2 -34 0 -38 -4z"/>
</g>
</svg>
